:FULLY-SPECIFIED
:FORCE-ALL-JOINTS-BE-3DOF
:DEGREES
1427
root -2.01157 13.6991 12.6878 366.587 26.2624 366.63
lfemur 26.8563 0.350659 -11.0108
ltibia 15.6829 0 0
lfoot -15.6766 34.8814 0
ltoes -24.7226 0 0
rfemur -66.0504 -22.129 12.459
rtibia 74.2891 0 0
rfoot -9.04871 12.0761 0
rtoes 5.1716 0 0
lowerback 9.72658 2.01343 -10.7198
upperback -3.47049 1.14563 -1.05544
thorax -9.48109 1.16051 4.68891
lowerneck 0.519111 -12.3004 -10.8599
upperneck 6.13022 -16.9654 10.2647
head 3.47348 -8.43118 4.06549
lclavicle -5.91964e-14 1.07797e-14 0
lhumerus -75.9199 -17.8584 105.001
lradius 101.06 0 0
lwrist 59.0313 0 0
lhand -8.64702 41.4889 0
lfingers 7.12502 0 0
lthumb 17.2882 -289.225 0
rclavicle -5.91964e-14 1.07797e-14 0
rhumerus 63.8496 -15.2834 -28.0227
rradius 82.6916 0 0
rwrist 27.7956 0 0
rhand -45.4321 -31.9861 0
rfingers 7.12502 0 0
rthumb -18.2037 -61.2492 0
1428
root -2.01603 13.6981 12.6863 366.609 26.2733 366.659
lfemur 26.7824 0.344936 -11.0198
ltibia 15.7772 0 0
lfoot -15.6681 34.8899 0
ltoes -24.5935 0 0
rfemur -66.0784 -22.1549 12.4558
rtibia 74.2955 0 0
rfoot -9.03755 12.0978 0
rtoes 5.1844 0 0
lowerback 9.71961 2.00606 -10.7502
upperback -3.482 1.13145 -1.05851
thorax -9.48876 1.15615 4.70519
lowerneck 0.513546 -12.2985 -10.8551
upperneck 6.1313 -16.9616 10.2519
head 3.47296 -8.42935 4.061
lclavicle -5.79589e-14 1.07642e-14 0
lhumerus -75.932 -17.8847 105.025
lradius 101.042 0 0
lwrist 59.0717 0 0
lhand -8.66329 41.418 0
lfingers 7.12502 0 0
lthumb 17.2725 -289.294 0
rclavicle -5.79589e-14 1.07642e-14 0
rhumerus 63.8124 -15.2794 -27.9978
rradius 82.7191 0 0
rwrist 27.7753 0 0
rhand -45.4121 -31.999 0
rfingers 7.12502 0 0
rthumb -18.1844 -61.2635 0
1429
root -2.02103 13.6973 12.6848 366.633 26.2903 366.689
lfemur 26.7008 0.336751 -11.0252
ltibia 15.874 0 0
lfoot -15.6585 34.8947 0
ltoes -24.4729 0 0
rfemur -66.1059 -22.1764 12.4511
rtibia 74.3009 0 0
rfoot -9.02685 12.1072 0
rtoes 5.19276 0 0
lowerback 9.71732 1.99913 -10.7767
upperback -3.49188 1.11814 -1.06137
thorax -9.49731 1.15196 4.71927
lowerneck 0.504025 -12.2917 -10.8478
upperneck 6.1315 -16.9508 10.2347
head 3.47212 -8.42408 4.05519
lclavicle -5.67318e-14 1.0746e-14 0
lhumerus -75.9258 -17.9136 105.044
lradius 101.024 0 0
lwrist 59.104 0 0
lhand -8.6876 41.3499 0
lfingers 7.12502 0 0
lthumb 17.2491 -289.361 0
rclavicle -5.67318e-14 1.0746e-14 0
rhumerus 63.769 -15.2637 -27.9719
rradius 82.7424 0 0
rwrist 27.7454 0 0
rhand -45.3787 -32.0076 0
rfingers 7.12502 0 0
rthumb -18.1523 -61.2739 0
1430
root -2.0266 13.6966 12.6833 366.66 26.3137 366.721
lfemur 26.6115 0.326015 -11.0267
ltibia 15.9727 0 0
lfoot -15.6477 34.8955 0
ltoes -24.3618 0 0
rfemur -66.133 -22.1933 12.445
rtibia 74.3053 0 0
rfoot -9.01684 12.1034 0
rtoes 5.19667 0 0
lowerback 9.72003 1.99269 -10.799
upperback -3.5 1.10581 -1.064
thorax -9.50676 1.14796 4.73095
lowerneck 0.490252 -12.2797 -10.838
upperneck 6.13077 -16.9324 10.2127
head 3.47095 -8.41512 4.04796
lclavicle -5.55207e-14 1.0726e-14 0
lhumerus -75.8998 -17.9454 105.056
lradius 101.005 0 0
lwrist 59.1276 0 0
lhand -8.72042 41.285 0
lfingers 7.12502 0 0
lthumb 17.2174 -289.424 0
rclavicle -5.55207e-14 1.0726e-14 0
rhumerus 63.719 -15.2357 -27.945
rradius 82.761 0 0
rwrist 27.7051 0 0
rhand -45.331 -32.0117 0
rfingers 7.12502 0 0
rthumb -18.1063 -61.2802 0
1431
root -2.03277 13.6962 12.6818 366.691 26.3438 366.753
lfemur 26.5142 0.312637 -11.024
ltibia 16.073 0 0
lfoot -15.6355 34.8921 0
ltoes -24.2611 0 0
rfemur -66.1598 -22.2052 12.4375
rtibia 74.309 0 0
rfoot -9.00772 12.0857 0
rtoes 5.19609 0 0
lowerback 9.72805 1.9868 -10.8167
upperback -3.50622 1.09454 -1.06637
thorax -9.51717 1.14417 4.74003
lowerneck 0.471932 -12.2623 -10.8253
upperneck 6.12904 -16.9061 10.1857
head 3.46941 -8.40222 4.03923
lclavicle -5.4331e-14 1.0705e-14 0
lhumerus -75.8529 -17.9802 105.063
lradius 100.986 0 0
lwrist 59.1419 0 0
lhand -8.76225 41.2234 0
lfingers 7.12502 0 0
lthumb 17.1771 -289.483 0
rclavicle -5.4331e-14 1.0705e-14 0
rhumerus 63.6621 -15.1944 -27.9171
rradius 82.7747 0 0
rwrist 27.6536 0 0
rhand -45.2682 -32.0109 0
rfingers 7.12502 0 0
rthumb -18.0457 -61.2821 0
1432
root -2.03959 13.696 12.6803 366.725 26.3809 366.786
lfemur 26.4088 0.296527 -11.0168
ltibia 16.1742 0 0
lfoot -15.6217 34.8841 0
ltoes -24.1719 0 0
rfemur -66.1865 -22.212 12.4287
rtibia 74.312 0 0
rfoot -8.99971 12.0532 0
rtoes 5.19099 0 0
lowerback 9.74171 1.98148 -10.8295
upperback -3.51041 1.08444 -1.06846
thorax -9.52856 1.14061 4.74631
lowerneck 0.448772 -12.2389 -10.8098
upperneck 6.12624 -16.8713 10.1534
head 3.46749 -8.38513 4.0289
lclavicle -5.31684e-14 1.06839e-14 0
lhumerus -75.7836 -18.0182 105.062
lradius 100.966 0 0
lwrist 59.1463 0 0
lhand -8.81357 41.1656 0
lfingers 7.12502 0 0
lthumb 17.1276 -289.538 0
rclavicle -5.31684e-14 1.06839e-14 0
rhumerus 63.5981 -15.1392 -27.8884
rradius 82.783 0 0
rwrist 27.5903 0 0
rhand -45.1893 -32.0049 0
rfingers 7.12502 0 0
rthumb -17.9696 -61.2791 0
1433
root -2.04706 13.696 12.679 366.764 26.4253 366.82
lfemur 26.2953 0.277594 -11.0048
ltibia 16.2759 0 0
lfoot -15.6062 34.8714 0
ltoes -24.0952 0 0
rfemur -66.2132 -22.2133 12.4185
rtibia 74.3147 0 0
rfoot -8.99302 12.0052 0
rtoes 5.18137 0 0
lowerback 9.76133 1.9768 -10.8371
upperback -3.51243 1.0756 -1.07025
thorax -9.54097 1.13731 4.7496
lowerneck 0.420475 -12.2094 -10.791
upperneck 6.12231 -16.8275 10.1155
head 3.46516 -8.36361 4.01689
lclavicle -5.20383e-14 1.06636e-14 0
lhumerus -75.6907 -18.0597 105.054
lradius 100.945 0 0
lwrist 59.14 0 0
lhand -8.87486 41.1118 0
lfingers 7.12502 0 0
lthumb 17.0685 -289.589 0
rclavicle -5.20383e-14 1.06636e-14 0
rhumerus 63.5264 -15.0691 -27.8588
rradius 82.7856 0 0
rwrist 27.5145 0 0
rhand -45.0935 -31.9935 0
rfingers 7.12502 0 0
rthumb -17.8772 -61.2711 0
1434
root -2.05524 13.6963 12.6777 366.806 26.4772 366.856
lfemur 26.1734 0.255748 -10.9877
ltibia 16.3777 0 0
lfoot -15.5886 34.8537 0
ltoes -24.0318 0 0
rfemur -66.2401 -22.2088 12.4072
rtibia 74.317 0 0
rfoot -8.98786 11.9408 0
rtoes 5.16718 0 0
lowerback 9.78721 1.97279 -10.839
upperback -3.51216 1.06811 -1.07174
thorax -9.55443 1.13428 4.74969
lowerneck 0.386747 -12.1733 -10.769
upperneck 6.11718 -16.7742 10.0716
head 3.4624 -8.33741 4.00308
lclavicle -5.09463e-14 1.0645e-14 0
lhumerus -75.5729 -18.1047 105.039
lradius 100.924 0 0
lwrist 59.1224 0 0
lhand -8.9466 41.0622 0
lfingers 7.12502 0 0
lthumb 16.9993 -289.634 0
rclavicle -5.09463e-14 1.0645e-14 0
rhumerus 63.4469 -14.9835 -27.8284
rradius 82.7822 0 0
rwrist 27.4254 0 0
rhand -44.9798 -31.9762 0
rfingers 7.12502 0 0
rthumb -17.7675 -61.2577 0
